<svg width="50" height="21" viewBox="0 0 50 21" fill="none" xmlns="http://www.w3.org/2000/svg">
<path d="M3.82572 0.00219727H0V20.067H3.82572V0.00219727Z" fill="white"/>
<path d="M50.0005 0.00244141H44.8244H40.9987H35.8203V3.86167H40.9987V20.065H44.8244V3.86167H50.0005V0.00244141Z" fill="white"/>
<path d="M24.6232 14.6728C24.6232 13.9019 24.4338 13.2992 24.0505 12.8694C23.6695 12.4373 22.9572 12.003 21.9156 11.5663C19.9453 10.8795 18.4754 10.0858 17.5038 9.18301C16.5321 8.28244 16.0474 7.02257 16.0474 5.40565C16.0474 3.8001 16.5952 2.49701 17.6909 1.49866C18.7865 0.500312 20.2271 0 22.0148 0C23.922 0 25.428 0.532151 26.5326 1.59645C27.6373 2.66075 28.1716 4.09801 28.1355 5.91051L28.1062 5.99238H24.4045C24.4045 4.97129 24.2038 4.20262 23.8048 3.68639C23.4035 3.17016 22.7903 2.91318 21.9607 2.91318C21.2438 2.91318 20.7163 3.14515 20.3804 3.61135C20.0422 4.07527 19.8754 4.6802 19.8754 5.42157C19.8754 6.11063 20.0783 6.6678 20.4841 7.09307C20.8899 7.52061 21.6316 7.97544 22.7069 8.45755C24.6119 9.08977 26.0434 9.87207 26.9948 10.8045C27.9484 11.7369 28.4241 13.0172 28.4241 14.6432C28.4241 16.3261 27.865 17.6474 26.7468 18.6139C25.6286 19.5804 24.1249 20.0625 22.238 20.0625C20.3781 20.0625 18.7978 19.5486 17.5015 18.5229C16.203 17.4973 15.5762 15.9281 15.6236 13.82L15.6506 13.7359H19.3524C19.3524 14.9525 19.5913 15.8281 20.0715 16.3625C20.5495 16.8969 21.2731 17.163 22.2403 17.163C23.0586 17.163 23.6628 16.9356 24.0505 16.4807C24.4315 16.0305 24.6232 15.4255 24.6232 14.6728Z" fill="white"/>
</svg>
