<svg width="100" height="116" viewBox="0 0 100 116" fill="none" xmlns="http://www.w3.org/2000/svg">
<path d="M9.39079 0.00439453H1.91406V39.2177H9.39079V0.00439453Z" fill="white"/>
<path d="M99.6308 0.00439453H89.5149H82.0382H71.918V7.54662H82.0382V39.2133H89.5149V7.54662H99.6308V0.00439453Z" fill="white"/>
<path d="M50.0384 28.6756C50.0384 27.1689 49.6683 25.9911 48.9193 25.1511C48.1747 24.3067 46.7824 23.4578 44.7469 22.6044C40.8962 21.2622 38.0236 19.7111 36.1247 17.9467C34.2257 16.1867 33.2785 13.7244 33.2785 10.5644C33.2785 7.42667 34.3491 4.88 36.4904 2.92889C38.6316 0.977778 41.4469 0 44.9408 0C48.6681 0 51.6112 1.04 53.7701 3.12C55.929 5.2 56.9732 8.00889 56.9027 11.5511L56.8454 11.7111H49.611C49.611 9.71556 49.2189 8.21333 48.439 7.20444C47.6548 6.19556 46.4564 5.69333 44.835 5.69333C43.434 5.69333 42.403 6.14667 41.7465 7.05778C41.0857 7.96444 40.7596 9.14667 40.7596 10.5956C40.7596 11.9422 41.1562 13.0311 41.9492 13.8622C42.7423 14.6978 44.1918 15.5867 46.2934 16.5289C50.0163 17.7644 52.814 19.2933 54.6733 21.1156C56.537 22.9378 57.4666 25.44 57.4666 28.6178C57.4666 31.9067 56.374 34.4889 54.1887 36.3778C52.0034 38.2667 49.0647 39.2089 45.377 39.2089C41.7421 39.2089 38.6536 38.2044 36.1203 36.2C33.5825 34.1956 32.3577 31.1289 32.4502 27.0089L32.5031 26.8444H39.7375C39.7375 29.2222 40.2045 30.9333 41.1429 31.9778C42.077 33.0222 43.4913 33.5422 45.3814 33.5422C46.9807 33.5422 48.1615 33.0978 48.9193 32.2089C49.6639 31.3289 50.0384 30.1467 50.0384 28.6756Z" fill="white"/>
<path d="M-3.62059e-08 59.1969L0 60.0251L100 60.0251L100 59.1968L-3.62059e-08 59.1969Z" fill="white"/>
<path d="M2.65424 75.7378H1.91406V84.8178H2.65424V75.7378Z" fill="white"/>
<path d="M11.7783 84.8178H11.0381L5.92729 77.0489L5.88764 77.0578V84.8178H5.14746V75.7378H5.88764L11.0028 83.4933L11.0381 83.4845V75.7378H11.7783V84.8178Z" fill="white"/>
<path d="M20.202 76.3778H17.1355V84.8178H16.3997V76.3778H13.2275V75.7378H20.202V76.3778Z" fill="white"/>
<path d="M26.4278 80.4222H22.3921V84.1911H27.0578V84.8222H21.6475V75.7378H27.027V76.3778H22.3921V79.7867H26.4278V80.4222Z" fill="white"/>
<path d="M29.371 84.1911H34.0192V84.8178H28.6309V75.7378H29.371V84.1911Z" fill="white"/>
<path d="M36.3452 84.1911H40.9933V84.8178H35.6006V75.7378H36.3452V84.1911Z" fill="white"/>
<path d="M43.5097 75.7378H42.7695V84.8178H43.5097V75.7378Z" fill="white"/>
<path d="M52.4004 83.5956C52.2021 83.9244 51.8364 84.2311 51.3033 84.52C50.7702 84.8044 50.0961 84.9511 49.2854 84.9511C48.2501 84.9511 47.4041 84.5911 46.7433 83.8711C46.0824 83.1511 45.752 82.2222 45.752 81.0756V79.4133C45.752 78.2889 46.0736 77.3778 46.708 76.6667C47.3469 75.96 48.1752 75.6089 49.1885 75.6089C50.1666 75.6089 50.942 75.8667 51.5192 76.3867C52.0964 76.9067 52.3695 77.5689 52.3563 78.3689L52.3387 78.4044H51.6558C51.6558 77.7778 51.4399 77.2578 51.0125 76.8489C50.5852 76.4444 49.9772 76.24 49.1885 76.24C48.3822 76.24 47.7302 76.5333 47.2367 77.1244C46.7433 77.7156 46.4965 78.4711 46.4965 79.3956V81.0711C46.4965 82.0222 46.7521 82.7956 47.2676 83.4044C47.7831 84.0133 48.4571 84.3156 49.2854 84.3156C49.9155 84.3156 50.431 84.2222 50.8319 84.0311C51.2328 83.84 51.5104 83.6178 51.6646 83.3644V81.04H49.2414V80.4044H52.4004V83.5956Z" fill="white"/>
<path d="M59.4981 80.4222H55.4624V84.1911H60.1326V84.8222H54.7178V75.7378H60.0973V76.3778H55.4624V79.7867H59.4981V80.4222Z" fill="white"/>
<path d="M68.332 84.8178H67.5918L62.4766 77.0489L62.4414 77.0578V84.8178H61.7012V75.7378H62.4414L67.5566 83.4933L67.5918 83.4845V75.7378H68.332V84.8178Z" fill="white"/>
<path d="M76.7557 76.3778H73.6893V84.8178H72.9535V76.3778H69.7812V75.7378H76.7557V76.3778Z" fill="white"/>
<path d="M7.52278 97.9424C7.52278 97.4758 7.33774 97.0891 6.97205 96.7869C6.60636 96.4847 5.98515 96.2002 5.10838 95.9335C4.1435 95.6669 3.41653 95.338 2.91426 94.938C2.4164 94.5424 2.16087 94.0002 2.16087 93.3202C2.16087 92.6224 2.44284 92.0535 3.00239 91.6091C3.56193 91.1602 4.28008 90.938 5.14803 90.938C6.06445 90.938 6.80022 91.1913 7.35536 91.698C7.91049 92.2002 8.18367 92.8447 8.16605 93.6224L8.15283 93.658H7.46111C7.46111 93.058 7.24522 92.5602 6.81345 92.1691C6.38167 91.7735 5.82654 91.578 5.14803 91.578C4.4475 91.578 3.89676 91.7469 3.50024 92.0802C3.10371 92.418 2.90546 92.8269 2.90546 93.3113C2.90546 93.7735 3.08609 94.1513 3.44737 94.4491C3.80865 94.7469 4.4475 95.0224 5.35511 95.2847C6.30677 95.5647 7.02933 95.9069 7.52719 96.3113C8.02505 96.7202 8.27619 97.258 8.27619 97.9335C8.27619 98.6402 7.9854 99.2091 7.39942 99.6402C6.81785 100.071 6.08207 100.285 5.19649 100.285C4.31092 100.285 3.5399 100.058 2.87902 99.6002C2.21815 99.1469 1.90092 98.4802 1.92295 97.6091L1.93616 97.5735H2.62348C2.62348 98.2758 2.88342 98.8002 3.40772 99.1424C3.93201 99.4847 4.52681 99.658 5.2009 99.658C5.88822 99.658 6.45217 99.498 6.88394 99.1824C7.3069 98.8535 7.52278 98.4447 7.52278 97.9424Z" fill="white"/>
<path d="M14.8663 95.7513H10.8305V99.5158H15.4963V100.147H10.0859V91.0669H15.4655V91.7025H10.8305V95.1158H14.8663V95.7513Z" fill="white"/>
<path d="M17.7919 96.0441V100.146H17.0518V91.0708H20.0521C21.017 91.0708 21.7528 91.2841 22.2727 91.7108C22.7882 92.1375 23.0437 92.7597 23.0437 93.5775C23.0437 94.0619 22.9071 94.493 22.634 94.8708C22.3608 95.253 21.9731 95.5286 21.4708 95.7064C22.026 95.8486 22.4269 96.0975 22.6736 96.4664C22.9204 96.8308 23.0393 97.2841 23.0393 97.8352V98.6886C23.0393 98.973 23.0746 99.2264 23.1406 99.4486C23.2067 99.6708 23.3125 99.8575 23.4667 99.9952V100.146H22.7133C22.5635 99.9952 22.4533 99.7864 22.3916 99.5152C22.33 99.2441 22.2991 98.9641 22.2991 98.6752V97.8441C22.2991 97.2886 22.1229 96.8486 21.766 96.5241C21.4092 96.1997 20.9113 96.0397 20.2724 96.0397H17.7919V96.0441ZM17.7919 95.4086H19.964C20.7747 95.4086 21.3695 95.2441 21.744 94.9108C22.1185 94.5819 22.3035 94.133 22.3035 93.573C22.3035 92.9775 22.1185 92.5152 21.744 92.1908C21.3695 91.8664 20.8056 91.7064 20.0477 91.7064H17.7875V95.4086H17.7919Z" fill="white"/>
<path d="M27.7448 98.5558L27.9255 99.1913H27.9607L28.1414 98.5558L30.8466 91.0669H31.6484L28.2956 100.147H27.5906L24.2422 91.0669H25.0441L27.7448 98.5558Z" fill="white"/>
<path d="M33.9081 91.0669H33.168V100.147H33.9081V91.0669Z" fill="white"/>
<path d="M42.6013 97.3114L42.6145 97.347C42.6321 98.2359 42.3413 98.947 41.7509 99.4803C41.1561 100.014 40.3763 100.276 39.4114 100.276C38.4113 100.276 37.6006 99.9114 36.9882 99.1825C36.3714 98.4536 36.0674 97.507 36.0674 96.347V94.867C36.0674 93.7114 36.3714 92.7648 36.9882 92.0314C37.6006 91.2981 38.4113 90.9292 39.4114 90.9292C40.3851 90.9292 41.1694 91.1914 41.7553 91.707C42.3457 92.227 42.6321 92.9425 42.6145 93.8536L42.6013 93.8892H41.9095C41.9095 93.1559 41.6892 92.587 41.2443 92.1781C40.7993 91.7692 40.1913 91.5603 39.4114 91.5603C38.6228 91.5603 37.9927 91.867 37.5169 92.4848C37.0411 93.1025 36.8032 93.8892 36.8032 94.8492V96.3425C36.8032 97.3159 37.0411 98.107 37.5169 98.7203C37.9927 99.3336 38.6272 99.6403 39.4114 99.6403C40.1913 99.6403 40.7993 99.4403 41.2443 99.0403C41.6892 98.6403 41.9095 98.0625 41.9095 97.3025H42.6013V97.3114Z" fill="white"/>
<path d="M49.2979 95.7513H45.2622V99.5158H49.928V100.147H44.5176V91.0669H49.8971V91.7025H45.2622V95.1158H49.2979V95.7513Z" fill="white"/>
<path d="M8.88852 107.031H5.82205V115.476H5.08627V107.031H1.91406V106.396H8.88852V107.031Z" fill="white"/>
<path d="M15.1134 111.08H11.0776V114.844H15.7434V115.476H10.333V106.396H15.7125V107.031H11.0776V110.444H15.1134V111.08Z" fill="white"/>
<path d="M23.5153 112.64L23.5285 112.676C23.5462 113.564 23.2554 114.276 22.665 114.809C22.0702 115.342 21.2948 115.604 20.3255 115.604C19.3254 115.604 18.5191 115.24 17.9023 114.511C17.2899 113.782 16.9814 112.836 16.9814 111.68V110.2C16.9814 109.044 17.2899 108.098 17.9023 107.364C18.5191 106.631 19.3254 106.262 20.3255 106.262C21.3036 106.262 22.0834 106.524 22.6694 107.04C23.2598 107.56 23.5462 108.276 23.5285 109.187L23.5153 109.222H22.8236C22.8236 108.489 22.6033 107.92 22.1583 107.511C21.7133 107.102 21.1053 106.898 20.3255 106.898C19.5412 106.898 18.9068 107.204 18.431 107.822C17.9551 108.44 17.7172 109.227 17.7172 110.187V111.68C17.7172 112.653 17.9551 113.444 18.431 114.058C18.9068 114.671 19.5412 114.978 20.3255 114.978C21.1053 114.978 21.7177 114.778 22.1583 114.378C22.6033 113.978 22.8236 113.4 22.8236 112.64H23.5153Z" fill="white"/>
<path d="M32.0272 115.476H31.287V111.298H26.1718V115.476H25.4316V106.396H26.1718V110.662H31.287V106.396H32.0272V115.476Z" fill="white"/>
<path d="M40.9624 115.476H40.2178L35.107 107.707L35.0717 107.711V115.476H34.3271V106.396H35.0717L40.1825 114.147L40.2178 114.142V106.396H40.9624V115.476Z" fill="white"/>
<path d="M49.8622 111.676C49.8622 112.844 49.545 113.796 48.9061 114.52C48.2717 115.244 47.4169 115.604 46.3463 115.604C45.2889 115.604 44.4474 115.244 43.8218 114.52C43.1917 113.796 42.8789 112.849 42.8789 111.676V110.196C42.8789 109.027 43.1917 108.08 43.8218 107.351C44.4474 106.622 45.2889 106.258 46.3419 106.258C47.4125 106.258 48.2673 106.622 48.9061 107.351C49.545 108.08 49.8622 109.027 49.8622 110.196V111.676ZM49.1308 110.187C49.1308 109.204 48.8841 108.413 48.3906 107.813C47.8972 107.218 47.2143 106.916 46.3419 106.916C45.4828 106.916 44.8175 107.213 44.3372 107.813C43.8614 108.413 43.6191 109.2 43.6191 110.187V111.676C43.6191 112.667 43.8614 113.458 44.3417 114.058C44.8219 114.653 45.4916 114.956 46.3463 114.956C47.2231 114.956 47.906 114.658 48.395 114.062C48.8841 113.467 49.1308 112.671 49.1308 111.676V110.187Z" fill="white"/>
<path d="M52.5234 114.844H57.1716V115.476H51.7832V106.396H52.5234V114.844Z" fill="white"/>
<path d="M65.3583 111.676C65.3583 112.844 65.0411 113.796 64.4022 114.52C63.7678 115.244 62.913 115.604 61.8424 115.604C60.785 115.604 59.9435 115.244 59.3178 114.52C58.6878 113.796 58.375 112.849 58.375 111.676V110.196C58.375 109.027 58.6878 108.08 59.3178 107.351C59.9435 106.622 60.785 106.258 61.8424 106.258C62.913 106.258 63.7678 106.622 64.4066 107.351C65.0455 108.08 65.3627 109.027 65.3627 110.196V111.676H65.3583ZM64.6269 110.187C64.6269 109.204 64.3802 108.413 63.8867 107.813C63.3933 107.218 62.7104 106.916 61.838 106.916C60.9789 106.916 60.3136 107.213 59.8333 107.813C59.3531 108.413 59.1152 109.2 59.1152 110.187V111.676C59.1152 112.667 59.3575 113.458 59.8377 114.058C60.318 114.653 60.9877 114.956 61.8424 114.956C62.7192 114.956 63.4021 114.658 63.8911 114.062C64.3802 113.467 64.6269 112.671 64.6269 111.676V110.187Z" fill="white"/>
<path d="M73.6758 114.253C73.4775 114.582 73.1118 114.889 72.5787 115.178C72.0456 115.462 71.3715 115.609 70.5608 115.609C69.5255 115.609 68.6795 115.249 68.0187 114.529C67.3578 113.809 67.0273 112.88 67.0273 111.733V110.071C67.0273 108.947 67.349 108.035 67.9878 107.324C68.6267 106.618 69.4506 106.267 70.4683 106.267C71.4464 106.267 72.2218 106.529 72.7946 107.044C73.3718 107.564 73.6493 108.227 73.6317 109.027L73.6141 109.062H72.9356C72.9356 108.435 72.7197 107.915 72.2923 107.507C71.865 107.102 71.257 106.898 70.4683 106.898C69.662 106.898 69.01 107.191 68.5121 107.782C68.0187 108.373 67.7719 109.129 67.7719 110.053V111.729C67.7719 112.68 68.0319 113.453 68.5474 114.062C69.0629 114.671 69.7325 114.973 70.5608 114.973C71.1909 114.973 71.7064 114.88 72.1073 114.689C72.5082 114.498 72.7858 114.275 72.9444 114.022V111.698H70.5212V111.062H73.6802V114.253H73.6758Z" fill="white"/>
<path d="M78.7076 111.44L81.4965 106.396H82.3556L79.0732 112.156V115.476H78.3375V112.124L75.0771 106.396H75.9363L78.7076 111.44Z" fill="white"/>
</svg>
