<svg width="101" height="60" viewBox="0 0 101 60" fill="none" xmlns="http://www.w3.org/2000/svg">
<path d="M93.247 34.0851V18.459C93.247 16.6408 91.822 15.2158 90.0776 15.2158H11.3573C9.58826 15.2158 8.18781 16.6654 8.18781 18.459V34.1097C8.18781 35.9278 9.61283 37.3528 11.3327 37.3528H90.0776C91.8466 37.3283 93.247 35.9032 93.247 34.0851Z" fill="#707070"/>
<path d="M87.1048 26.272C87.1048 27.1073 86.8591 27.7953 86.3677 28.3604C85.8763 28.9009 85.262 29.1711 84.5004 29.1711C83.7387 29.1711 83.1245 28.9009 82.6331 28.3604C82.1417 27.8198 81.9206 27.1073 81.9206 26.272C81.9206 25.4366 82.1663 24.7487 82.6577 24.1836C83.1491 23.6185 83.7633 23.3482 84.5004 23.3482C85.2375 23.3482 85.8517 23.6185 86.3431 24.1836C86.8345 24.7487 87.1048 25.4366 87.1048 26.272ZM88.2595 29.9328C88.7509 29.4414 89.144 28.8763 89.3897 28.2621C89.66 27.6478 89.7828 26.9845 89.7828 26.272C89.7828 25.5594 89.66 24.8961 89.3897 24.2818C89.1194 23.643 88.7509 23.1025 88.2595 22.6111C87.7681 22.1197 87.203 21.7512 86.5396 21.4809C85.8763 21.2107 85.2129 21.0878 84.5004 21.0878C83.7879 21.0878 83.1245 21.2107 82.4611 21.4809C81.8223 21.7512 81.2327 22.1197 80.7658 22.6111C80.2499 23.1025 79.8814 23.6676 79.6111 24.2818C79.3408 24.8961 79.218 25.5594 79.218 26.272C79.218 26.9845 79.3408 27.6478 79.6111 28.2621C79.8814 28.8763 80.2745 29.4414 80.7658 29.9328C81.2572 30.4242 81.8223 30.7927 82.4611 31.063C83.0999 31.3332 83.7879 31.4561 84.5004 31.4561C85.1883 31.4561 85.8763 31.3332 86.5151 31.063C87.1785 30.7927 87.7435 30.4242 88.2595 29.9328ZM76.1468 31.1858H78.874V21.2844H76.1468V31.1858ZM69.5868 21.3089V31.2104H75.6308V28.9009H72.2648V21.3089H69.5868ZM66.0979 31.1858H68.8251V21.2844H66.0979V31.1858ZM61.2332 28.2866C60.7418 27.7707 60.4961 27.1073 60.4961 26.3211C60.4961 25.4612 60.7418 24.7732 61.2086 24.2573C61.7 23.7413 62.3142 23.471 63.1005 23.471C63.5181 23.471 63.9112 23.5693 64.2798 23.7659C64.6483 23.9624 65.0169 24.2573 65.3854 24.6749V21.7266C64.9677 21.5301 64.5255 21.3581 64.1078 21.2598C63.6901 21.1615 63.2724 21.1124 62.8302 21.1124C62.1177 21.1124 61.4543 21.2352 60.8646 21.4564C60.275 21.7021 59.7344 22.046 59.2676 22.5374C58.7762 23.0534 58.4077 23.5939 58.162 24.2327C57.9163 24.8469 57.7935 25.5349 57.7935 26.2965C57.7935 27.2302 57.99 28.0901 58.3831 28.8272C58.7762 29.5888 59.3413 30.2031 60.0784 30.6944C60.4715 30.9647 60.8892 31.1613 61.3315 31.2841C61.7983 31.407 62.2897 31.4807 62.8302 31.4807C63.2479 31.4807 63.6901 31.4315 64.1078 31.3332C64.5255 31.235 64.9677 31.063 65.3854 30.8664V27.9181C65.0169 28.3358 64.6483 28.6306 64.2798 28.8272C63.9112 29.0237 63.5181 29.122 63.1005 29.122C62.3388 29.0483 61.7246 28.8026 61.2332 28.2866ZM54.7714 21.3089V27.3776L51.1843 21.3089H48.4817V31.2104H51.086V25.0926L54.6977 31.2104H57.3758V21.3089H54.7714ZM35.6319 24.7487C35.6319 25.1663 35.509 25.4857 35.2388 25.6823C34.9685 25.8788 34.5508 25.9771 33.9612 25.9771H33.4698V23.3728H34.0103C34.6 23.3728 35.0176 23.471 35.2633 23.6922C35.4845 23.8887 35.6319 24.2573 35.6319 24.7487ZM41.8971 27.5004L42.8799 24.2327C42.929 24.0361 43.0027 23.815 43.0518 23.5939C43.101 23.3728 43.1747 23.1516 43.2238 22.906C43.3221 23.2499 43.3712 23.5448 43.445 23.7659C43.4941 23.987 43.5432 24.1344 43.5678 24.2573L44.5751 27.525H41.8971V27.5004ZM38.3345 30.547L36.0741 27.2056C36.7866 27.0582 37.3517 26.7388 37.7203 26.2474C38.0888 25.7806 38.2854 25.1418 38.2854 24.3801C38.2854 23.8642 38.1871 23.4219 37.9905 23.0042C37.794 22.5865 37.5237 22.2426 37.1552 21.9723C36.8358 21.7266 36.4672 21.5546 36.025 21.4564C35.5827 21.3581 34.8211 21.3089 33.7155 21.3089H30.89V31.2104H33.4206V27.3284L35.681 31.2104H38.0643H38.7276H40.7423L41.2583 29.4414H45.0911L45.5825 31.2104H48.2606L44.8454 21.3089H41.4794L38.3345 30.547ZM17.8682 22.9797V29.4905C17.8682 30.547 17.0083 31.407 15.9518 31.407C14.8953 31.407 14.0354 30.547 14.0354 29.4905C14.0354 29.0483 14.1828 28.6306 14.4531 28.3112L17.5488 24.3555C18.0156 23.7904 17.9174 22.9305 17.3523 22.4637L13.6423 18.7537C13.1018 18.2378 12.2418 18.2378 11.7259 18.7537C11.2099 19.2697 11.2099 20.1296 11.7259 20.6701L14.6988 23.643L12.3155 26.6651C11.7013 27.4513 11.3328 28.5078 11.3328 29.5151C11.3328 32.0458 13.3966 34.1342 15.9518 34.1342C18.4825 34.1342 20.5709 32.0458 20.5709 29.5151V23.0042C20.5709 21.9477 21.4308 21.0878 22.4873 21.0878C23.5437 21.0878 24.3791 21.9477 24.3791 23.0042C24.3791 23.4465 24.2317 23.8642 23.9614 24.1836L20.8657 28.1392C20.3989 28.7289 20.4971 29.5643 21.0622 30.0311L24.7722 33.7411C25.2882 34.2816 26.1727 34.2816 26.6886 33.7411C27.2046 33.2251 27.2046 32.3652 26.6886 31.8246L23.7157 28.8517L26.099 25.8297C26.7132 25.0435 27.0817 24.0116 27.0817 23.0042C27.0817 20.4736 24.9933 18.3852 22.4627 18.3852C19.9566 18.3606 17.8682 20.449 17.8682 22.9797Z" fill="white"/>
<path d="M48.4818 40.7433C48.4818 40.7679 48.4818 40.7925 48.5064 40.7925C48.6047 40.9153 48.5555 41.0627 48.6047 41.161C48.6047 41.161 48.6292 41.1856 48.6292 41.161C48.6047 41.2347 48.5555 41.2838 48.5064 41.3576C48.5555 41.4804 48.4081 41.6032 48.359 41.7261C48.2853 41.677 48.2607 41.7752 48.2361 41.7752L48.2116 41.7507L48.187 41.7752C48.2361 41.6278 48.0887 41.4067 48.1624 41.3084C48.015 41.2101 48.1624 41.0627 48.015 40.9399C48.1379 40.8907 48.1379 40.5713 48.359 40.6696L48.4818 40.7433Z" fill="#707070"/>
<path d="M39.465 42.9545L39.4402 43.004C39.465 42.9792 39.465 42.9793 39.465 42.9545Z" fill="#707070"/>
<path d="M73.5672 39.6375C73.5917 39.9078 73.5672 40.1535 73.6654 40.3746C73.6409 40.9643 73.6163 41.6276 73.6163 42.2173L73.69 42.1927C74.3534 41.3819 74.9431 40.4483 75.803 39.8095C75.9013 39.8095 75.975 39.8586 76.0732 39.9323C76.2207 40.1043 76.0241 40.3009 75.9995 40.4974L75.5082 40.866C75.3853 41.0871 75.1396 41.1854 75.0659 41.4556C74.4762 41.9962 73.9849 42.6595 73.5672 43.2983C73.5917 43.9863 73.5426 44.6251 73.69 45.313C73.862 45.2393 74.034 45.0673 74.1814 44.8708C75.459 43.5932 76.2207 41.9962 77.1789 40.522C77.2526 40.3254 77.3754 40.0798 77.5965 39.9323C77.8422 39.8341 77.8177 40.1535 77.8422 40.3009C77.6457 40.8168 77.4491 41.3082 77.056 41.7505C76.1715 43.0772 75.3116 44.5268 74.1568 45.7799C73.8866 45.9273 73.69 46.3449 73.346 46.2958C72.9775 45.9764 73.1003 45.4604 73.0021 44.9936C73.0021 44.7234 72.9284 44.4531 72.9775 44.1828L72.9284 44.1583C72.5844 44.6988 72.2404 45.0673 71.7736 45.5096C71.577 45.829 71.3068 46.1975 70.9628 46.4432C70.8891 46.5169 70.7908 46.4432 70.7171 46.3941C70.4223 45.7553 70.5943 44.9936 70.5206 44.2811C70.5943 43.4458 70.6188 42.4876 70.6434 41.6768C70.6434 41.2591 70.5206 40.8905 70.5206 40.4483C70.6926 40.3009 70.668 39.9569 70.9628 40.006C71.2331 40.0306 71.2085 40.2763 71.2577 40.4974C71.2577 40.7923 71.3559 41.1854 71.2822 41.5048C71.2822 42.3893 71.1594 43.2001 71.1348 44.0846C71.0857 44.5022 71.1839 44.9691 71.1839 45.3867C71.4542 45.1902 71.5033 44.8462 71.7982 44.6988C72.1176 44.3794 72.4124 43.9371 72.7072 43.5932C72.6335 43.3229 72.9284 43.4703 72.9038 43.2246C73.0021 43.1755 72.9529 43.0281 72.9775 42.9789L73.0266 41.7505L73.0758 40.866C72.8792 40.694 73.1249 40.4974 73.0266 40.2763L72.9775 40.178C73.0021 39.8586 73.0021 39.5147 73.2478 39.3672C73.4443 39.2935 73.518 39.5147 73.5672 39.6375Z" fill="#707070"/>
<path d="M60.9875 39.6622C60.9138 40.1536 60.3733 40.3993 60.2505 40.8661C59.931 41.333 59.7099 41.7261 59.5625 42.242L59.5871 42.3649C60.2505 42.242 60.8401 42.3157 61.4789 42.1437C62.044 42.1192 62.7811 41.8489 63.3708 41.9472L63.4445 42.07C63.5919 41.8735 63.6165 41.6032 63.6656 41.4067H63.6165C63.8376 40.9398 63.985 40.3502 64.2798 39.9079C64.329 39.8342 64.4518 39.8588 64.5255 39.8834C64.4518 39.9571 64.5747 39.9816 64.5747 40.0553C64.5501 40.473 64.2798 40.7679 64.1816 41.161C64.0096 41.6278 63.985 42.1192 63.813 42.5614C63.7639 42.6843 63.9113 42.8808 63.7147 42.9545L63.7639 43.0037C63.6165 43.5442 63.4199 44.1093 63.4199 44.699C63.3708 44.7235 63.3462 44.7972 63.3708 44.8464L63.3953 44.8709C63.9113 44.4533 64.1816 43.7653 64.7467 43.3968C64.9186 43.3968 64.8695 43.5442 64.9432 43.6179C65.0169 44.2321 64.7467 44.8464 64.7221 45.436C64.7958 45.5834 64.8204 45.78 64.7467 45.9274C64.6238 46.0011 64.5501 46.0748 64.3535 46.0748C64.2798 45.9029 64.1816 45.8537 64.1816 45.6572C64.157 45.3132 64.3044 44.9446 64.329 44.6252L64.2798 44.527C64.329 44.527 64.3535 44.4778 64.3535 44.4533V44.4041C63.9604 44.8955 63.4199 45.4606 63.0268 45.9766C62.9777 45.9274 62.8057 46.124 62.7811 45.9274C62.8302 45.8537 62.7074 45.8783 62.732 45.8046C62.7811 45.608 62.8302 45.3378 62.8057 45.1658H62.7565C62.9039 45.0921 62.8302 44.8464 62.9285 44.6744C63.0022 43.8636 63.3216 42.9545 63.4936 42.1683C63.4936 42.1437 63.4936 42.0946 63.4445 42.0946H63.4199C63.4445 42.2912 63.3953 42.3403 63.2233 42.3649C63.1251 42.5123 62.8548 42.3403 62.732 42.5368C62.1177 42.7088 61.5035 42.6351 60.9384 42.9054C60.7664 42.8071 60.4224 42.93 60.1767 42.9791C60.0293 42.9545 59.9065 42.9791 59.7345 43.0037C59.5871 42.9791 59.3414 43.0037 59.2922 43.1511C59.1694 43.6179 59.1203 44.0847 59.1448 44.6007L59.2185 44.6252C59.0711 44.7235 59.2922 44.7727 59.194 44.8709C59.2185 45.1166 59.4151 45.0429 59.4888 45.2395C59.5871 45.2149 59.7099 45.3378 59.8328 45.3623C60.5453 45.436 61.2578 45.1412 61.7246 44.6744C61.8475 44.6498 61.6755 45.0429 61.8966 44.9446C61.6755 45.6326 60.8156 45.8537 60.2013 46.0011C59.7836 46.0994 59.4642 45.9029 59.1203 45.78C59.1448 45.6572 59.022 45.7554 59.022 45.6572C58.4569 45.1903 58.678 44.3796 58.678 43.7407C58.8009 43.5688 58.7763 43.3231 58.8254 43.1265C58.2358 43.1511 57.5724 43.3231 56.9582 43.3231C56.909 43.4459 56.7862 43.3231 56.737 43.4213V43.3968C56.5159 43.4213 56.2702 43.5196 56.0737 43.3476C56.0245 43.2002 56.2211 43.1019 56.1965 42.93C56.3931 42.758 56.737 42.7825 56.9827 42.7088C57.6215 42.6106 58.3832 42.5614 59.022 42.3894C59.1448 42.0946 59.366 41.7506 59.4151 41.4312C59.5379 41.4312 59.4151 41.2838 59.5134 41.2592L60.3979 39.7851L60.3487 39.7359C60.5453 39.7114 60.619 39.392 60.8647 39.4411C60.9384 39.5148 60.8647 39.6131 60.9875 39.6622Z" fill="#707070"/>
<path d="M79.8814 42.7578C79.8322 42.8807 80.0288 42.979 79.9551 43.1755L80.0288 43.2001C80.0288 43.3475 80.0042 43.5441 80.0288 43.7406C80.2253 43.6669 80.4219 43.5195 80.5939 43.3966C80.9133 43.2001 81.3064 43.1509 81.6258 43.0035C81.6995 43.1018 81.8715 43.1018 82.0189 43.1264C82.0926 43.2738 82.0189 43.3966 81.9206 43.5441C81.8223 43.5441 81.8223 43.6423 81.7978 43.6669C81.2327 43.8389 80.5447 43.9372 80.2008 44.5268C80.299 44.5268 80.1762 44.6251 80.2499 44.6742C80.1025 44.8462 80.2253 45.1656 80.1025 45.3622C80.1271 45.5342 80.2008 45.657 80.127 45.8536L79.9305 46.0993C79.6602 46.173 79.5865 45.8536 79.5865 45.657C79.6357 45.4359 79.5128 45.2393 79.5865 45.0182L79.5128 44.9936C79.6848 44.8708 79.4882 44.6251 79.562 44.4286L79.5374 44.2074H79.5128C79.5374 43.8389 79.4637 43.3229 79.2917 42.9544C79.2917 42.8561 79.3654 42.7333 79.3408 42.5859C79.4391 42.4876 79.5128 42.3402 79.6602 42.291C79.7339 42.463 79.9305 42.5367 79.8814 42.7578Z" fill="#707070"/>
<path d="M48.6049 42.8316C48.5312 42.9053 48.6049 43.0036 48.6295 43.0527C48.6049 43.8389 48.4575 44.6006 48.3592 45.3377C48.5066 45.4114 48.3592 45.5342 48.3838 45.6325L48.1627 45.7799L48.1381 45.7308L48.0644 45.8536C47.7941 45.7554 47.917 45.436 47.8433 45.2394C47.8678 45.1903 47.8433 45.092 47.8433 45.0428C47.9661 44.5023 47.9907 44.1092 48.0644 43.5195C47.9661 43.4704 48.089 43.3476 48.0153 43.2739C48.0398 43.1019 48.0398 42.8562 48.1627 42.7088C48.1381 42.6596 48.1872 42.5613 48.2609 42.5613C48.3838 42.635 48.5066 42.7088 48.6049 42.8316Z" fill="#707070"/>
<path d="M42.6589 42.8807C42.7817 42.9053 42.8063 42.979 42.8063 43.0773C42.7572 43.3475 42.4378 43.4458 42.1921 43.4458L42.0938 43.4212C42.2167 43.2247 42.4132 43.0281 42.6589 42.8807ZM45.5581 42.979C45.6072 42.8561 45.7301 42.8807 45.8038 42.8316C45.8775 42.8562 45.9758 42.8562 46.0249 42.9299C45.8284 43.323 45.4107 43.5195 45.0667 43.5441C45.1404 43.2984 45.3615 43.0527 45.5581 42.979ZM47.3025 44.4532L46.3689 44.8954C46.0003 44.9445 45.5827 45.2639 45.165 45.2148C44.8947 45.1411 44.9193 44.9691 44.7964 44.748C44.8456 44.5023 44.6982 44.2075 44.8947 44.0601C44.9684 44.1829 45.0421 44.3549 45.2633 44.3057C45.6072 44.1092 46.074 44.0109 46.2706 43.5932L46.2952 43.6178C46.4426 43.3721 46.6637 43.0527 46.5654 42.7087C46.418 42.5367 46.4672 42.2911 46.2215 42.1682C46.246 42.1436 46.2952 42.1191 46.2215 42.0945C46.1969 42.0699 46.1969 42.1191 46.1478 42.1191C45.9266 41.9471 45.5581 42.1436 45.3615 42.2419V42.2911C45.2633 42.3156 45.1404 42.4139 45.0421 42.5122C44.7473 42.9299 44.4279 43.2984 44.3788 43.8144C44.1576 44.0355 44.477 44.6989 43.9119 44.6743C43.6662 44.8217 43.3223 44.8708 43.0274 44.9691C42.7326 45.0674 42.3641 45.1165 42.0692 44.9937C41.7498 44.8217 41.7744 44.3794 41.799 44.1092C42.0692 44.1583 42.3641 44.1829 42.5606 44.0355C43.0029 43.8144 43.4206 43.3475 43.3468 42.7824C43.396 42.6842 43.1994 42.7579 43.2977 42.6596C43.1749 42.463 43.1503 42.0945 42.8309 42.0699C42.5361 42.0699 42.3641 42.2665 42.1184 42.4385L42.0938 42.4139L42.0447 42.463C42.0447 42.463 42.0447 42.4876 42.0692 42.5122C41.9955 42.5859 41.9218 42.7087 41.8481 42.7333C41.7498 43.0036 41.4796 43.2247 41.4059 43.495H40.7916C40.6688 43.0773 40.9145 42.5859 40.939 42.1436C41.0128 41.9962 41.0619 41.7997 41.111 41.7014C41.0865 41.6768 41.5041 40.7923 41.799 40.0552L41.8727 40.0061C41.8235 39.8587 42.0201 39.7113 42.0938 39.5639C42.1675 39.7113 41.9218 40.0061 41.9955 40.1781C41.9218 40.3255 41.9955 40.3992 41.971 40.5221C42.0692 40.5712 42.0938 40.5466 42.1921 40.4729C42.3395 40.0798 42.6098 39.7113 42.8309 39.3182C42.7818 39.2444 42.8555 39.1953 42.9046 39.1462C42.9046 38.9251 43.1257 38.7039 43.1012 38.4582C43.0766 38.3108 42.9783 38.2125 42.88 38.1143C42.4378 38.1634 42.1921 38.5319 41.8727 38.7776C41.8481 38.9005 41.7498 38.9496 41.7007 39.097C41.7007 39.1953 41.5779 39.0725 41.6024 39.1953C41.4059 39.5639 41.3322 39.957 41.0865 40.3009C41.0373 40.4238 40.9882 40.4975 41.0128 40.6203C40.9145 40.6695 40.6442 41.1117 40.7671 41.2837C40.5951 41.6522 40.7179 41.4066 40.5951 41.7997C40.4968 42.2419 40.4722 42.635 40.3494 43.0527C40.2757 43.2738 40.3248 43.3967 40.202 43.6424C39.9317 43.6424 39.6369 43.7161 39.3666 43.6915V43.6178L39.3175 43.7161C39.2929 43.5932 39.2929 43.4212 39.3912 43.4212C39.3912 43.3721 39.3912 43.1018 39.4649 42.9053C39.4403 42.9299 39.4649 42.8316 39.4649 42.8316C39.514 42.6842 39.5386 42.3156 39.5386 42.3156C39.4895 42.1928 39.7351 40.866 39.7843 40.8169C39.7843 40.8169 39.9317 40.1535 39.9563 40.2027C40.0791 40.0061 40.0791 39.6867 40.2265 39.5639C40.202 39.8587 40.1283 40.3009 40.3002 40.4729C40.4722 40.3009 40.6688 40.1535 40.6442 39.8095C40.6688 39.6867 40.8162 39.7113 40.6933 39.5884C40.6933 39.5884 40.7179 39.5393 40.7425 39.5639L40.6933 39.441C40.7425 39.3427 40.6688 39.1216 40.7179 39.0233L40.374 38.4582C40.0791 38.36 40.0054 38.7531 39.8089 38.9005C39.7843 39.0233 39.686 39.1462 39.6369 39.269L39.5877 39.2445C39.6369 39.3919 39.514 39.5639 39.514 39.7113C39.4895 39.8833 39.342 40.0552 39.3912 40.2518L39.342 40.2764C39.3666 40.4975 39.1701 41.0872 39.1455 41.1854C39.1701 41.3574 39.0472 41.5048 39.1455 41.7505C39.0963 42.4139 38.9244 43.0773 38.8261 43.6915C38.4084 43.8389 37.8679 43.6669 37.4256 43.9126C37.3273 44.0109 37.2291 44.1338 37.2782 44.2812C37.5485 44.6497 38.0399 44.404 38.433 44.4286C38.5067 44.5514 38.605 44.3549 38.6541 44.5023L38.5804 44.576C38.6787 44.748 38.4821 45.0674 38.4575 45.264C38.433 45.829 38.2856 46.3204 38.1627 46.861C38.1136 47.3032 38.0399 47.6718 37.8187 47.6226C37.7205 47.598 37.5485 47.598 37.5239 47.7209C37.4748 47.9666 37.5485 48.2368 37.5485 48.458C37.5485 48.5071 37.6468 48.5808 37.5976 48.6054C37.573 48.7037 37.6468 48.8019 37.6959 48.8511C37.8433 48.9002 37.9662 48.8019 38.0399 48.7037C38.3593 47.942 38.7032 46.9347 38.6787 46.6644C38.8507 46.5416 38.6787 46.345 38.8015 46.173C38.8015 46.1976 38.8998 45.9765 38.8261 45.9273L38.8998 45.8782C38.8752 45.8045 39.0472 45.6816 38.8998 45.6325C38.9489 45.5342 38.8998 45.3622 38.9981 45.2885V45.3131C38.9981 45.2394 39.0963 45.1411 38.9981 45.092C39.1455 44.92 39.1209 44.6497 39.2192 44.4286C39.5386 44.4286 39.8089 44.3549 40.0791 44.3795C39.6614 46.3941 40.1037 46.5416 39.2438 48.4334C39.1209 48.3597 39.1455 48.286 39.0718 48.1877C39.0718 48.1877 39.0226 48.114 38.9981 48.0649C38.9981 48.0649 38.7278 47.4998 38.7278 47.9912C38.7278 48.3106 38.7278 48.6791 38.9981 48.8756L38.9735 48.9002C39.0472 49.0476 39.342 49.1951 39.342 49.1951C39.4649 49.2688 39.514 49.0476 39.6614 49.0476C39.8089 48.4088 40.1774 47.7946 40.2511 47.1067C40.3494 46.5661 40.2265 46.4678 40.3248 46.173C40.4231 46.001 40.4231 45.5588 40.374 45.4851C40.4722 45.2639 40.4477 44.9937 40.4231 44.7726H40.5214C40.5214 44.7234 40.5459 44.6743 40.5705 44.6251C40.3985 44.404 40.6934 44.3549 40.7916 44.2075C40.9145 44.2812 41.0865 44.1583 41.2585 44.1583C41.1847 44.3795 41.283 44.6251 41.2093 44.8217C41.3322 45.2394 41.5778 45.6816 42.0692 45.7553C42.6589 45.8536 43.2977 45.6325 43.8382 45.4359C43.9857 45.3622 44.1331 45.2639 44.3296 45.2394C44.3051 45.4605 44.5507 45.6079 44.6245 45.7799C45.4107 46.1239 46.2706 45.5834 47.0077 45.2885C47.106 45.2394 47.0814 45.0183 47.2042 45.1165C47.2042 44.8954 47.4745 45.0428 47.4745 44.8217C47.3025 44.748 47.6219 44.404 47.3025 44.4532Z" fill="#707070"/>
<path d="M36.2954 45.0429C36.148 45.2395 35.8532 45.2886 35.6812 45.2149C35.6566 45.1412 35.4846 45.2149 35.4846 45.0429C35.1898 45.0184 35.3127 44.6007 35.3127 44.355C35.3127 44.3059 35.3372 44.2813 35.3618 44.2567L35.3864 44.2813C35.5338 43.839 35.6812 43.2002 36.148 43.0282C36.3691 42.9791 36.3691 43.2494 36.4674 43.3476C36.664 43.9373 36.6885 44.6007 36.2954 45.0429ZM36.9342 43.3476C36.7377 42.93 36.664 42.4386 36.1972 42.242C36.0743 42.2175 35.976 42.3649 35.8286 42.3157C35.2144 42.6843 35.2144 43.4951 34.6247 43.9127C34.2807 44.5024 34.0596 44.9692 33.3962 45.3378C33.0523 45.5098 32.6592 45.5098 32.2906 45.4606C31.9221 45.4852 31.6027 45.2641 31.3079 45.0429C31.1359 44.7727 31.1113 44.2567 31.2587 43.9373C31.2341 43.7653 31.3816 43.5442 31.4061 43.3968C31.4307 43.3477 31.4798 43.2494 31.5535 43.2494L31.529 43.1757C31.6273 43.102 31.6764 42.93 31.7747 42.8563C31.8238 42.6351 32.0695 42.6351 32.0941 42.4632C32.2661 42.4386 32.2906 42.3403 32.4872 42.2912C32.61 42.4877 32.3398 42.758 32.3152 42.9545C32.3889 43.0528 32.3398 43.2002 32.3152 43.2985C32.438 43.6671 32.2169 44.2567 32.7083 44.4287C32.9049 44.3304 32.9294 44.0847 33.0277 43.8636C33.1997 43.8145 33.126 43.6179 33.2243 43.4951C33.3717 42.7826 33.2488 41.9963 32.61 41.5049C31.9712 41.7015 31.4061 42.1929 31.0867 42.8071H31.0376L31.0867 42.8563C30.9639 43.1511 30.6936 43.4459 30.7673 43.7162C30.7919 43.839 30.6445 43.9865 30.7428 44.0847C30.5953 44.1093 30.7182 44.3304 30.6936 44.5024C30.7919 44.8218 30.8902 45.3132 31.185 45.5589C31.6518 46.0748 32.3398 46.1731 32.9786 46.1486V46.124C33.3962 46.0994 33.7648 45.9029 34.0351 45.6326C34.0596 45.6572 34.0596 45.6817 34.0842 45.6817V45.608C34.3299 45.4606 34.4527 45.2149 34.6984 45.0184L35.0178 45.4606C35.2635 45.6326 35.3372 45.7063 35.6321 45.8783C35.976 46.0257 36.3691 45.8537 36.6148 45.6572C37.2045 45.0184 37.1308 44.0847 36.9342 43.3476Z" fill="#707070"/>
<path d="M78.1614 44.5024C77.8666 44.6989 77.5472 44.9938 77.1786 45.0429C77.2278 45.1412 77.0804 45.1412 77.0558 45.1903C76.9329 45.092 76.8838 45.3377 76.6873 45.264C76.6135 45.3132 76.4416 45.1903 76.3433 45.2395C76.2204 45.2149 76.1713 45.0675 76.1467 44.9692C76.0976 44.5024 76.3679 44.1584 76.6873 43.839C76.8592 43.667 77.0804 43.6179 77.3015 43.5196L77.2769 43.495C77.3261 43.4705 77.3015 43.5933 77.3752 43.495L77.5226 43.4459V43.4705L77.67 43.4213V43.4459C77.7683 43.3722 77.9403 43.3968 78.1123 43.4213C78.2106 43.4459 78.2351 43.5687 78.358 43.5933C78.4317 43.9373 78.4317 44.2075 78.1614 44.5024ZM78.9231 44.0356C78.9476 43.7899 78.9722 43.3968 78.8494 43.2002L78.8739 43.1756C78.8248 43.0773 78.6282 42.8808 78.4563 42.7579C78.3825 42.7088 78.2351 42.7579 78.1614 42.6597C77.9649 42.6597 77.6946 42.6597 77.498 42.7088C76.6135 42.8317 76.0239 43.6916 75.7536 44.4532C75.6799 44.6252 75.729 44.8955 75.6062 45.0675C75.7536 45.1412 75.6308 45.3132 75.6799 45.4606C75.8028 45.6817 76.0485 45.8783 76.2696 45.9765C76.3679 45.9028 76.4907 46.0502 76.5644 46.0257C77.5718 45.9028 78.5791 45.1166 78.9476 44.1093L78.9231 44.0356Z" fill="#707070"/>
<path d="M54.3784 44.2076C54.3784 44.4041 54.3047 44.6744 54.1081 44.7973C53.9361 44.9201 53.6413 44.8955 53.4447 44.8218C53.2236 44.6744 53.027 44.355 53.1253 44.0602C53.2236 43.7408 53.6413 43.5688 53.9607 43.5196C54.1327 43.5442 54.3538 43.5442 54.5012 43.7162C54.5749 43.8882 54.4029 44.0356 54.3784 44.2076ZM55.1646 44.1339C55.1155 43.6179 55.0172 43.1757 54.5504 42.8317C54.1572 42.586 53.7396 42.8563 53.2973 42.9546L53.2236 43.0283C52.9779 43.102 52.8551 43.3722 52.6831 43.5934C52.5111 43.5688 52.5848 43.7899 52.462 43.8145L52.3391 44.2567C52.3391 44.4779 52.0197 44.527 51.8232 44.6253C51.3809 44.4779 51.6266 43.9128 51.5283 43.5934C51.5283 43.4705 51.43 43.4214 51.43 43.2985H51.1843C51.0369 43.3477 51.1352 43.4705 51.0369 43.5442C50.9141 44.0356 50.5701 44.6007 50.1279 44.8955C50.0542 44.8218 50.0296 44.699 50.0296 44.6007H50.0787C49.8822 44.1585 50.0542 43.7408 49.9313 43.2248C50.0542 43.102 49.9559 42.9054 49.9313 42.7334C49.9067 42.6351 49.7348 42.4877 49.6365 42.4877C49.3908 42.6351 49.4645 42.93 49.4645 43.1511C49.3908 43.2985 49.4399 43.4705 49.4399 43.6179C49.1942 43.7899 49.6119 43.9373 49.4153 44.1585C49.4891 44.2567 49.4645 44.4779 49.4645 44.6498C49.4399 44.7727 49.5382 44.9447 49.4891 45.043C49.6856 45.0675 49.5136 45.3869 49.6856 45.4606C49.6119 45.5589 49.7839 45.5589 49.7593 45.6326C49.8822 45.78 50.0787 45.6326 50.2261 45.6572C50.2507 45.5343 50.4473 45.4852 50.4473 45.4361C50.4473 45.3624 50.4718 45.3132 50.5455 45.3132L50.9141 44.8218C51.2335 44.6007 51.1352 45.1167 51.3563 45.2395C51.7003 45.4361 52.118 45.3132 52.4374 45.0921C52.462 45.1167 52.462 45.1658 52.462 45.1904C52.6585 45.2149 52.7568 45.5343 52.9779 45.5589C53.1008 45.608 53.2973 45.6572 53.3464 45.7063L54.2064 45.6818C54.2555 45.952 54.2555 46.124 54.2555 46.3697C54.3292 46.4188 54.2555 46.468 54.2555 46.5171C54.3538 46.7874 54.1572 46.7628 54.2555 47.0576C54.1327 47.3525 54.0835 47.9176 53.5676 48.2861C53.0762 48.6301 52.5111 48.5318 51.9951 48.4335C51.5775 48.2861 50.9878 48.3844 50.693 47.9667L50.7912 47.9176C50.5455 47.7702 50.2261 47.9421 49.9804 47.9667C49.7593 48.1387 49.8576 48.2861 49.8822 48.4827C49.9313 48.6055 50.0542 48.6792 50.177 48.7775C50.8158 48.9249 51.5038 49.2443 52.2163 49.1952C52.4865 49.318 53.0516 49.2197 53.3956 49.1215C53.5676 49.0723 53.715 48.8512 53.9115 48.8021C53.9853 48.6301 54.1818 48.5318 54.2309 48.3353C54.5012 48.3107 54.3784 47.9667 54.5995 47.8684C54.6978 47.4753 54.7223 47.0822 54.796 46.9839C54.8206 46.468 54.6978 45.8292 54.8206 45.2886C54.6978 45.1658 54.9926 45.1658 54.9189 45.043C55.1892 44.7973 55.14 44.4287 55.1646 44.1339Z" fill="#707070"/>
<path d="M86.8591 44.9201C86.4169 45.1166 85.9501 45.1658 85.5078 44.9692C85.385 45.0429 85.4095 44.8464 85.3113 44.8709C85.1393 44.6007 85.3604 44.2321 85.5324 43.9864L85.9009 43.7653C86.1958 43.7899 86.6626 43.667 86.7854 43.9864C86.7363 44.0847 86.81 44.2813 86.7609 44.4287C86.81 44.6007 86.9329 44.7481 86.8591 44.9201ZM83.7634 41.7015C83.8371 41.5295 83.8371 41.3084 83.9845 41.2101C83.9845 41.161 83.9354 41.2101 83.9354 41.161C84.1319 40.6941 84.3776 40.1782 84.7708 39.8588C84.8445 40.0799 84.7707 40.3256 84.7462 40.5467L84.6479 40.5959C84.8445 40.8661 84.5496 41.2347 84.5251 41.5295C84.3285 41.9963 84.0337 42.3894 83.6651 42.6597H83.5914C83.5914 42.414 83.7143 42.07 83.7634 41.7015ZM88.8493 38.6549L88.7264 38.4092C88.5299 38.1635 88.4562 38.5566 88.3333 38.5812C88.2105 39.0726 88.063 39.0726 87.9402 39.6131C87.9648 39.6868 87.7682 39.7114 87.8665 39.7851C87.7436 40.1045 87.6699 40.4976 87.5225 40.7924L87.5717 40.817C87.4242 41.2592 87.2031 41.7015 87.154 42.1683C87.0557 42.4386 87.0066 42.758 86.9083 43.0528C86.5152 42.93 85.9009 42.93 85.5324 43.1757C85.3358 43.4459 85.0164 43.7407 84.8936 44.1093L84.9182 44.1584C84.8199 44.2567 84.869 44.4041 84.8445 44.5024L84.7708 44.4287C84.4513 44.5515 84.2056 45.0184 83.8371 44.9938C83.788 44.9201 83.5914 44.8955 83.7143 44.7727L83.5914 44.7235C83.5914 44.6989 83.6406 44.6744 83.6406 44.6498C83.4931 44.527 83.5668 44.3795 83.4931 44.2321C83.444 44.1584 83.5423 44.1339 83.5914 44.1339C83.5668 44.1339 83.4686 44.1339 83.4931 44.0847C83.4931 44.0356 83.5177 44.0847 83.5423 44.0847C83.4194 44.011 83.5423 43.8882 83.4931 43.7407C83.5177 43.4705 83.8862 43.3968 83.96 43.1511C84.3039 42.9791 84.4759 42.586 84.697 42.3157C84.6233 42.1683 84.8936 42.0209 84.869 41.8735L84.9182 41.7998C85.2867 40.9398 85.3604 40.0308 85.1884 39.1708C85.0901 39.0234 84.9182 38.7286 84.697 38.9497V38.9989C83.5668 40.0799 83.1246 41.7752 82.928 43.1757C82.8543 43.1757 82.8298 43.2739 82.7806 43.2002C82.7069 43.1757 82.5841 43.1756 82.5104 43.2494C82.4612 43.4213 82.3138 43.6179 82.4121 43.839C82.6086 43.8636 82.6823 43.9619 82.8789 43.9864C82.8298 44.3304 83.0509 44.6252 83.0509 44.9446C83.1 45.0921 83.272 45.3132 83.2474 45.4852C83.3212 45.5589 83.5177 45.6572 83.5668 45.7554C83.6651 45.78 83.7634 45.8783 83.8371 45.7554C84.0582 45.6572 84.1565 45.4115 84.4268 45.3132C84.5496 45.3623 84.7462 45.3132 84.869 45.4606C85.0656 45.5097 85.1639 45.7063 85.385 45.7063C85.5815 45.8291 85.8272 45.8783 86.0238 45.8291C86.4169 45.8537 86.81 45.7063 87.2031 45.5097C87.2523 45.608 87.326 45.78 87.4488 45.78C87.4734 45.9274 87.6208 45.9274 87.7191 46.0503C87.9648 46.0748 88.3087 46.0994 88.579 45.9274C88.5544 45.9274 88.5053 45.9274 88.5053 45.9029L88.5544 45.8783C88.5299 45.8291 88.4562 45.9028 88.4807 45.8291C88.5053 45.8046 88.5544 45.7063 88.6281 45.7554C88.6527 45.6326 88.9475 45.608 88.8738 45.436C88.8001 45.4115 88.8247 45.3378 88.8738 45.2886C88.5544 45.2886 88.2596 45.4606 87.9648 45.3623C87.9156 45.2149 87.6945 45.0675 87.7436 44.8218C87.6945 44.7727 87.8419 44.7481 87.7436 44.6989C87.8419 44.3058 87.8911 43.8145 87.6454 43.495C87.5225 43.5442 87.6454 43.3722 87.5225 43.3968C87.5962 42.758 87.7191 42.0455 87.9402 41.3821C87.9893 41.161 88.1613 40.9153 88.1368 40.7187C88.3087 40.129 88.2105 40.129 88.5053 39.6377L88.4807 39.5885C88.6527 39.4165 88.6036 39.1708 88.7264 39.0234C88.8247 38.9497 88.751 38.8023 88.8493 38.6549Z" fill="#707070"/>
<path d="M66.0979 44.1339C66.2944 43.9619 66.5892 43.7899 66.8595 43.7899L66.8841 43.8882C66.7367 44.2321 66.3927 44.2321 66.1224 44.3304C66.0733 44.2567 66.0733 44.2076 66.0979 44.1339ZM68.1125 45.0184C67.4246 45.0429 66.7858 45.4115 66.0487 45.3869C65.975 45.3869 65.9013 45.3378 65.8767 45.3378C65.7293 45.264 65.5082 45.1903 65.5573 44.9938C65.5328 45.0184 65.5328 45.0429 65.5082 45.0429C65.5328 44.9938 65.4836 44.8709 65.5819 44.8464C65.7539 44.9201 65.8767 45.0429 66.0979 45.0429C66.5892 45.0429 66.9086 44.6007 67.2526 44.2813C67.4 44.0356 67.4246 43.667 67.3263 43.3968L67.1789 43.2248C66.319 43.0528 65.5573 43.8882 65.1151 44.5515C64.894 44.9201 64.9185 45.4606 65.1888 45.8291C65.5819 46.1977 66.3681 46.0748 66.9332 45.952L67.0069 45.8537C67.4 45.8046 67.7931 45.6572 68.088 45.3623C68.1617 45.2149 68.088 45.1658 68.1125 45.0184Z" fill="#707070"/>
</svg>
