<svg width="30" height="30" viewBox="0 0 30 30" fill="none" xmlns="http://www.w3.org/2000/svg">
<path fill-rule="evenodd" clip-rule="evenodd" d="M7.35676 5.63774C7.57548 5.41934 7.8381 5.24992 8.12724 5.14071C8.41637 5.03149 8.72541 4.98498 9.03389 5.00424C9.34236 5.02351 9.64321 5.10812 9.91651 5.25246C10.1898 5.3968 10.4293 5.59759 10.6192 5.8415L12.8628 8.72413C13.2741 9.25291 13.4191 9.94169 13.2566 10.5917L12.5729 13.3293C12.5375 13.4711 12.5394 13.6197 12.5784 13.7605C12.6174 13.9013 12.6921 14.0297 12.7953 14.1331L15.8665 17.2045C15.97 17.308 16.0986 17.3828 16.2397 17.4218C16.3807 17.4608 16.5295 17.4626 16.6715 17.427L19.4076 16.7433C19.7284 16.663 20.0632 16.6568 20.3867 16.725C20.7102 16.7933 21.014 16.9341 21.2751 17.137L24.1575 19.3796C25.1937 20.1859 25.2887 21.7172 24.3612 22.6435L23.0688 23.9361C22.1438 24.8611 20.7613 25.2674 19.4726 24.8136C16.1742 23.653 13.1794 21.7645 10.7104 19.2884C8.2346 16.8195 6.34631 13.8249 5.18558 10.5267C4.7331 9.23916 5.13933 7.85534 6.06431 6.9303L7.35676 5.63774Z" fill="black"/>
</svg>
