<svg width="30" height="30" viewBox="0 0 30 30" fill="none" xmlns="http://www.w3.org/2000/svg">
<path d="M14.7293 18.5C13.8011 18.5 12.9108 18.1313 12.2545 17.4749C11.5981 16.8185 11.2293 15.9283 11.2293 15C11.2293 14.0717 11.5981 13.1815 12.2545 12.5251C12.9108 11.8688 13.8011 11.5 14.7293 11.5C15.6576 11.5 16.5478 11.8688 17.2042 12.5251C17.8606 13.1815 18.2293 14.0717 18.2293 15C18.2293 15.9283 17.8606 16.8185 17.2042 17.4749C16.5478 18.1313 15.6576 18.5 14.7293 18.5ZM22.1593 15.97C22.1993 15.65 22.2293 15.33 22.2293 15C22.2293 14.67 22.1993 14.34 22.1593 14L24.2693 12.37C24.4593 12.22 24.5093 11.95 24.3893 11.73L22.3893 8.27C22.2693 8.05 21.9993 7.96 21.7793 8.05L19.2893 9.05C18.7693 8.66 18.2293 8.32 17.5993 8.07L17.2293 5.42C17.209 5.30222 17.1477 5.19543 17.0561 5.11855C16.9646 5.04168 16.8489 4.99968 16.7293 5H12.7293C12.4793 5 12.2693 5.18 12.2293 5.42L11.8593 8.07C11.2293 8.32 10.6893 8.66 10.1693 9.05L7.67933 8.05C7.45933 7.96 7.18933 8.05 7.06933 8.27L5.06933 11.73C4.93933 11.95 4.99933 12.22 5.18933 12.37L7.29933 14C7.25933 14.34 7.22933 14.67 7.22933 15C7.22933 15.33 7.25933 15.65 7.29933 15.97L5.18933 17.63C4.99933 17.78 4.93933 18.05 5.06933 18.27L7.06933 21.73C7.18933 21.95 7.45933 22.03 7.67933 21.95L10.1693 20.94C10.6893 21.34 11.2293 21.68 11.8593 21.93L12.2293 24.58C12.2693 24.82 12.4793 25 12.7293 25H16.7293C16.9793 25 17.1893 24.82 17.2293 24.58L17.5993 21.93C18.2293 21.67 18.7693 21.34 19.2893 20.94L21.7793 21.95C21.9993 22.03 22.2693 21.95 22.3893 21.73L24.3893 18.27C24.5093 18.05 24.4593 17.78 24.2693 17.63L22.1593 15.97Z" fill="black"/>
</svg>
