<svg width="74" height="30" viewBox="0 0 74 30" fill="none" xmlns="http://www.w3.org/2000/svg">
<path d="M6 0H0V30H6V0Z" fill="black"/>
<path d="M74 0H66.3345H60.6688H53V5.7708H60.6688V30H66.3345V5.7708H74V0Z" fill="black"/>
<path d="M36.3593 21.9406C36.3593 20.7878 36.0783 19.8866 35.5095 19.2439C34.9441 18.5978 33.8869 17.9483 32.3413 17.2954C29.4172 16.2684 27.2359 15.0816 25.7939 13.7316C24.352 12.3849 23.6327 10.501 23.6327 8.0832C23.6327 5.68239 24.4457 3.73385 26.0716 2.24099C27.6976 0.74813 29.8354 0 32.4885 0C35.3188 0 37.5537 0.795738 39.193 2.38721C40.8324 3.97869 41.6253 6.12786 41.5718 8.83813L41.5283 8.96055H36.0348C36.0348 7.43369 35.737 6.28429 35.1449 5.51236C34.5494 4.74042 33.6394 4.35615 32.4082 4.35615C31.3443 4.35615 30.5614 4.70302 30.0629 5.40014C29.5611 6.09386 29.3135 6.99841 29.3135 8.10701C29.3135 9.13738 29.6146 9.97053 30.2168 10.6064C30.819 11.2457 31.9197 11.9259 33.5156 12.6468C36.3426 13.5922 38.4671 14.762 39.8789 16.1562C41.2941 17.5504 42 19.465 42 21.8964C42 24.4128 41.1703 26.3886 39.5109 27.8338C37.8515 29.2791 35.6199 30 32.8197 30C30.0596 30 27.7143 29.2315 25.7906 27.6978C23.8635 26.1641 22.9334 23.8177 23.0037 20.6654L23.0438 20.5396H28.5373C28.5373 22.3589 28.892 23.6681 29.6046 24.4672C30.3138 25.2664 31.3878 25.6642 32.823 25.6642C34.0375 25.6642 34.9341 25.3242 35.5095 24.6441C36.0749 23.9708 36.3593 23.0662 36.3593 21.9406Z" fill="black"/>
</svg>
