<svg width="327" height="150" viewBox="0 0 327 150" fill="none" xmlns="http://www.w3.org/2000/svg">
<path d="M255.793 83.8511V49.9945C255.793 46.0552 252.701 42.9676 248.916 42.9676H78.0925C74.2538 42.9676 71.2148 46.1084 71.2148 49.9945V83.9043C71.2148 87.8436 74.3071 90.9311 78.0392 90.9311H248.916C252.754 90.8779 255.793 87.7904 255.793 83.8511Z" fill="#008050"/>
<path d="M242.464 66.9226C242.464 68.7326 241.931 70.2231 240.865 71.4475C239.799 72.6186 238.466 73.2042 236.813 73.2042C235.16 73.2042 233.827 72.6186 232.761 71.4475C231.695 70.2763 231.215 68.7326 231.215 66.9226C231.215 65.1127 231.748 63.6221 232.814 62.3978C233.88 61.1734 235.213 60.5878 236.813 60.5878C238.412 60.5878 239.745 61.1734 240.811 62.3978C241.878 63.6221 242.464 65.1127 242.464 66.9226ZM244.97 74.8545C246.036 73.7898 246.889 72.5654 247.423 71.2346C248.009 69.9037 248.276 68.4664 248.276 66.9226C248.276 65.3789 248.009 63.9416 247.423 62.6107C246.836 61.2266 246.036 60.0555 244.97 58.9908C243.904 57.9261 242.678 57.1276 241.238 56.5421C239.798 55.9565 238.359 55.6903 236.813 55.6903C235.267 55.6903 233.827 55.9565 232.388 56.5421C231.001 57.1276 229.722 57.9261 228.709 58.9908C227.589 60.0555 226.79 61.2799 226.203 62.6107C225.617 63.9416 225.35 65.3789 225.35 66.9226C225.35 68.4664 225.617 69.9037 226.203 71.2346C226.79 72.5654 227.643 73.7898 228.709 74.8545C229.775 75.9191 231.001 76.7176 232.388 77.3032C233.774 77.8888 235.267 78.1549 236.813 78.1549C238.306 78.1549 239.798 77.8888 241.185 77.3032C242.624 76.7176 243.85 75.9191 244.97 74.8545ZM218.686 77.5694H224.604V56.1162H218.686V77.5694ZM204.45 56.1694V77.6226H217.566V72.6186H210.262V56.1694H204.45ZM196.879 77.5694H202.797V56.1162H196.879V77.5694ZM186.323 71.2878C185.257 70.1699 184.724 68.7326 184.724 67.0291C184.724 65.1659 185.257 63.6754 186.27 62.5575C187.336 61.4396 188.669 60.854 190.375 60.854C191.281 60.854 192.134 61.0669 192.934 61.4928C193.734 61.9187 194.534 62.5575 195.333 63.4624V57.0744C194.427 56.6485 193.467 56.2759 192.561 56.063C191.655 55.85 190.748 55.7436 189.788 55.7436C188.242 55.7436 186.803 56.0097 185.523 56.4888C184.244 57.0212 183.071 57.7664 182.058 58.8311C180.991 59.949 180.192 61.1202 179.659 62.5042C179.125 63.8351 178.859 65.3256 178.859 66.9759C178.859 68.9987 179.285 70.8619 180.138 72.4589C180.991 74.1092 182.218 75.44 183.817 76.5047C184.67 77.0903 185.577 77.5161 186.536 77.7823C187.549 78.0485 188.616 78.2082 189.788 78.2082C190.695 78.2082 191.655 78.1017 192.561 77.8888C193.467 77.6758 194.427 77.3032 195.333 76.8773V70.4893C194.534 71.3943 193.734 72.0331 192.934 72.4589C192.134 72.8848 191.281 73.0977 190.375 73.0977C188.722 72.938 187.389 72.4057 186.323 71.2878ZM172.301 56.1694V69.3181L164.517 56.1694H158.652V77.6226H164.304V64.3674L172.141 77.6226H177.952V56.1694H172.301ZM130.768 63.6222C130.768 64.5271 130.502 65.2192 129.915 65.645C129.329 66.0709 128.422 66.2838 127.143 66.2838H126.076V60.6411H127.249C128.529 60.6411 129.435 60.854 129.968 61.3331C130.448 61.759 130.768 62.5575 130.768 63.6222ZM144.364 69.5843L146.496 62.5042C146.603 62.0784 146.763 61.5993 146.869 61.1202C146.976 60.6411 147.136 60.162 147.243 59.6296C147.456 60.3749 147.563 61.0137 147.723 61.4928C147.829 61.9719 147.936 62.2913 147.989 62.5575L150.175 69.6375H144.364V69.5843ZM136.633 76.1853L131.728 68.9455C133.274 68.6261 134.5 67.9341 135.3 66.8694C136.1 65.858 136.526 64.4739 136.526 62.8236C136.526 61.7057 136.313 60.7475 135.886 59.8426C135.46 58.9376 134.873 58.1923 134.074 57.6067C133.381 57.0744 132.581 56.7018 131.621 56.4888C130.662 56.2759 129.009 56.1694 126.61 56.1694H120.478V77.6226H125.97V69.2117L130.875 77.6226H136.046H137.486H141.858L142.977 73.7898H151.295L152.361 77.6226H158.172L150.762 56.1694H143.457L136.633 76.1853ZM92.221 59.7893V73.8962C92.221 76.1853 90.355 78.0485 88.0624 78.0485C85.7698 78.0485 83.9038 76.1853 83.9038 73.8962C83.9038 72.938 84.2237 72.0331 84.8101 71.341L91.5279 62.7704C92.5409 61.546 92.3276 59.6828 91.1014 58.6714L83.0507 50.6331C81.8778 49.5152 80.0117 49.5152 78.8921 50.6331C77.7725 51.751 77.7725 53.6142 78.8921 54.7854L85.3433 61.2266L80.1717 67.7744C78.8388 69.4778 78.0391 71.7669 78.0391 73.9495C78.0391 79.4325 82.5176 83.9574 88.0624 83.9574C93.5539 83.9574 98.0857 79.4325 98.0857 73.9495V59.8426C98.0857 57.5535 99.9518 55.6903 102.244 55.6903C104.537 55.6903 106.35 57.5535 106.35 59.8426C106.35 60.8008 106.03 61.7057 105.443 62.3978L98.7255 70.9684C97.7125 72.246 97.9258 74.0559 99.152 75.0674L107.203 83.1057C108.322 84.2768 110.242 84.2768 111.361 83.1057C112.481 81.9878 112.481 80.1246 111.361 78.9534L104.91 72.5122L110.082 65.9644C111.415 64.261 112.214 62.0251 112.214 59.8426C112.214 54.3595 107.683 49.8346 102.191 49.8346C96.7528 49.7814 92.221 54.3063 92.221 59.7893Z" fill="white"/>
<path d="M158.65 98.2772C158.65 98.3304 158.65 98.3836 158.703 98.3836C158.916 98.6498 158.81 98.9692 158.916 99.1821C158.916 99.1821 158.97 99.2354 158.97 99.1821C158.916 99.3418 158.81 99.4483 158.703 99.608C158.81 99.8742 158.49 100.14 158.383 100.407C158.223 100.3 158.17 100.513 158.117 100.513L158.063 100.46L158.01 100.513C158.117 100.194 157.797 99.7145 157.957 99.5015C157.637 99.2886 157.957 98.9692 157.637 98.703C157.903 98.5966 157.903 97.9045 158.383 98.1175L158.65 98.2772Z" fill="#808080"/>
<path d="M139.087 103.068L139.033 103.175C139.087 103.122 139.087 103.122 139.087 103.068Z" fill="#808080"/>
<path d="M213.088 95.8813C213.141 96.4669 213.088 96.9992 213.301 97.4783C213.248 98.7559 213.194 100.193 213.194 101.471L213.354 101.418C214.794 99.6609 216.073 97.638 217.939 96.2539C218.153 96.2539 218.313 96.3604 218.526 96.5201C218.846 96.8927 218.419 97.3186 218.366 97.7445L217.3 98.543C217.033 99.0221 216.5 99.235 216.34 99.8206C215.06 100.992 213.994 102.429 213.088 103.813C213.141 105.304 213.034 106.688 213.354 108.178C213.727 108.019 214.101 107.646 214.421 107.22C217.193 104.452 218.846 100.992 220.925 97.7977C221.085 97.3718 221.352 96.8395 221.831 96.5201C222.365 96.3071 222.311 96.9992 222.365 97.3186C221.938 98.4365 221.512 99.5012 220.658 100.459C218.739 103.334 216.873 106.475 214.367 109.19C213.781 109.509 213.354 110.414 212.608 110.308C211.808 109.616 212.075 108.498 211.861 107.486C211.861 106.901 211.701 106.315 211.808 105.73L211.701 105.676C210.955 106.847 210.209 107.646 209.196 108.604C208.769 109.296 208.183 110.095 207.436 110.627C207.276 110.787 207.063 110.627 206.903 110.521C206.263 109.136 206.637 107.486 206.477 105.942C206.637 104.133 206.69 102.056 206.743 100.3C206.743 99.3947 206.477 98.5962 206.477 97.638C206.85 97.3186 206.796 96.5733 207.436 96.6798C208.023 96.733 207.969 97.2654 208.076 97.7445C208.076 98.3833 208.289 99.235 208.129 99.927C208.129 101.843 207.863 103.6 207.809 105.517C207.703 106.422 207.916 107.433 207.916 108.338C208.503 107.912 208.609 107.167 209.249 106.847C209.942 106.155 210.582 105.197 211.222 104.452C211.062 103.866 211.701 104.186 211.648 103.653C211.861 103.547 211.755 103.228 211.808 103.121L211.915 100.459L212.021 98.543C211.595 98.1703 212.128 97.7445 211.915 97.2653L211.808 97.0524C211.861 96.3604 211.861 95.6151 212.395 95.2957C212.821 95.136 212.981 95.6151 213.088 95.8813Z" fill="#808080"/>
<path d="M185.786 95.9348C185.626 96.9995 184.453 97.5318 184.186 98.5433C183.493 99.5547 183.013 100.406 182.693 101.524L182.747 101.791C184.186 101.524 185.466 101.684 186.852 101.311C188.078 101.258 189.678 100.673 190.957 100.886L191.117 101.152C191.437 100.726 191.491 100.14 191.597 99.7144H191.491C191.97 98.703 192.29 97.4254 192.93 96.4672C193.037 96.3075 193.303 96.3607 193.463 96.4139C193.303 96.5736 193.57 96.6269 193.57 96.7866C193.517 97.6915 192.93 98.3303 192.717 99.1821C192.344 100.194 192.29 101.258 191.917 102.216C191.81 102.483 192.13 102.908 191.704 103.068L191.81 103.175C191.491 104.346 191.064 105.57 191.064 106.848C190.957 106.901 190.904 107.061 190.957 107.167L191.011 107.22C192.13 106.315 192.717 104.825 193.943 104.026C194.316 104.026 194.21 104.346 194.37 104.505C194.53 105.836 193.943 107.167 193.89 108.445C194.05 108.764 194.103 109.19 193.943 109.509C193.676 109.669 193.517 109.829 193.09 109.829C192.93 109.456 192.717 109.35 192.717 108.924C192.663 108.179 192.983 107.38 193.037 106.688L192.93 106.475C193.037 106.475 193.09 106.369 193.09 106.315V106.209C192.237 107.274 191.064 108.498 190.211 109.616C190.104 109.509 189.731 109.935 189.678 109.509C189.784 109.35 189.518 109.403 189.571 109.243C189.678 108.817 189.784 108.232 189.731 107.859H189.624C189.944 107.699 189.784 107.167 189.998 106.795C190.158 105.038 190.851 103.068 191.224 101.365C191.224 101.311 191.224 101.205 191.117 101.205H191.064C191.117 101.631 191.011 101.737 190.637 101.791C190.424 102.11 189.838 101.737 189.571 102.163C188.238 102.536 186.905 102.376 185.679 102.962C185.306 102.749 184.56 103.015 184.026 103.121C183.706 103.068 183.44 103.121 183.067 103.175C182.747 103.121 182.214 103.175 182.107 103.494C181.84 104.505 181.734 105.517 181.787 106.635L181.947 106.688C181.627 106.901 182.107 107.007 181.894 107.22C181.947 107.753 182.374 107.593 182.534 108.019C182.747 107.966 183.013 108.232 183.28 108.285C184.826 108.445 186.372 107.806 187.385 106.795C187.652 106.741 187.279 107.593 187.758 107.38C187.279 108.871 185.413 109.35 184.08 109.669C183.173 109.882 182.48 109.456 181.734 109.19C181.787 108.924 181.521 109.137 181.521 108.924C180.294 107.912 180.774 106.156 180.774 104.772C181.041 104.399 180.987 103.867 181.094 103.441C179.814 103.494 178.375 103.867 177.042 103.867C176.935 104.133 176.669 103.867 176.562 104.08V104.026C176.082 104.08 175.549 104.293 175.123 103.92C175.016 103.6 175.443 103.388 175.389 103.015C175.816 102.642 176.562 102.696 177.095 102.536C178.482 102.323 180.134 102.216 181.521 101.844C181.787 101.205 182.267 100.46 182.374 99.7677C182.64 99.7677 182.374 99.4482 182.587 99.395L184.506 96.201L184.4 96.0945C184.826 96.0413 184.986 95.3493 185.519 95.4557C185.679 95.6154 185.519 95.8284 185.786 95.9348Z" fill="#808080"/>
<path d="M226.787 102.642C226.681 102.908 227.107 103.121 226.947 103.547L227.107 103.6C227.107 103.92 227.054 104.345 227.107 104.771C227.534 104.612 227.96 104.292 228.334 104.026C229.027 103.6 229.88 103.494 230.573 103.174C230.733 103.387 231.106 103.387 231.426 103.44C231.586 103.76 231.426 104.026 231.213 104.345C230.999 104.345 230.999 104.558 230.946 104.612C229.72 104.984 228.227 105.197 227.48 106.475C227.694 106.475 227.427 106.688 227.587 106.794C227.267 107.167 227.534 107.859 227.267 108.285C227.321 108.657 227.48 108.924 227.321 109.349L226.894 109.882C226.308 110.041 226.148 109.349 226.148 108.924C226.254 108.444 225.988 108.019 226.148 107.539L225.988 107.486C226.361 107.22 225.934 106.688 226.094 106.262L226.041 105.783H225.988C226.041 104.984 225.881 103.866 225.508 103.068C225.508 102.855 225.668 102.589 225.614 102.269C225.828 102.056 225.988 101.737 226.308 101.631C226.467 102.003 226.894 102.163 226.787 102.642Z" fill="#808080"/>
<path d="M158.916 102.802C158.757 102.961 158.916 103.174 158.97 103.281C158.916 104.984 158.597 106.635 158.383 108.232C158.703 108.391 158.383 108.657 158.437 108.87L157.957 109.19L157.903 109.083L157.744 109.349C157.157 109.137 157.424 108.445 157.264 108.019C157.317 107.912 157.264 107.699 157.264 107.593C157.53 106.422 157.584 105.57 157.744 104.292C157.53 104.186 157.797 103.92 157.637 103.76C157.69 103.387 157.69 102.855 157.957 102.536C157.903 102.429 158.01 102.216 158.17 102.216C158.437 102.376 158.703 102.536 158.916 102.802Z" fill="#808080"/>
<path d="M146.015 102.908C146.282 102.961 146.335 103.121 146.335 103.334C146.228 103.92 145.535 104.133 145.002 104.133L144.789 104.079C145.055 103.654 145.482 103.228 146.015 102.908ZM152.306 103.121C152.413 102.855 152.679 102.908 152.839 102.802C152.999 102.855 153.213 102.855 153.319 103.015C152.893 103.866 151.986 104.292 151.24 104.346C151.4 103.813 151.88 103.281 152.306 103.121ZM156.092 106.315L154.066 107.273C153.266 107.38 152.36 108.072 151.453 107.965C150.867 107.806 150.92 107.433 150.653 106.954C150.76 106.422 150.44 105.783 150.867 105.463C151.027 105.73 151.187 106.102 151.666 105.996C152.413 105.57 153.426 105.357 153.852 104.452L153.906 104.505C154.226 103.973 154.705 103.281 154.492 102.536C154.172 102.163 154.279 101.631 153.746 101.364C153.799 101.311 153.906 101.258 153.746 101.205C153.692 101.152 153.692 101.258 153.586 101.258C153.106 100.885 152.306 101.311 151.88 101.524V101.631C151.666 101.684 151.4 101.897 151.187 102.11C150.547 103.015 149.854 103.813 149.747 104.931C149.267 105.41 149.96 106.848 148.734 106.794C148.201 107.114 147.455 107.22 146.815 107.433C146.175 107.646 145.375 107.753 144.735 107.486C144.042 107.114 144.096 106.156 144.149 105.57C144.735 105.676 145.375 105.73 145.802 105.41C146.761 104.931 147.668 103.92 147.508 102.695C147.614 102.482 147.188 102.642 147.401 102.429C147.135 102.003 147.081 101.205 146.388 101.152C145.748 101.152 145.375 101.577 144.842 101.95L144.789 101.897L144.682 102.003C144.682 102.003 144.682 102.057 144.735 102.11C144.575 102.269 144.416 102.536 144.256 102.589C144.042 103.174 143.456 103.654 143.296 104.239H141.963C141.696 103.334 142.23 102.269 142.283 101.311C142.443 100.992 142.55 100.566 142.656 100.353C142.603 100.3 143.509 98.3834 144.149 96.7864L144.309 96.6799C144.202 96.3605 144.629 96.0411 144.789 95.7217C144.949 96.0411 144.416 96.6799 144.576 97.0526C144.416 97.372 144.576 97.5317 144.522 97.7978C144.735 97.9043 144.789 97.8511 145.002 97.6914C145.322 96.8396 145.908 96.0411 146.388 95.1894C146.282 95.0297 146.442 94.9232 146.548 94.8168C146.548 94.3377 147.028 93.8585 146.975 93.3262C146.921 93.0068 146.708 92.7939 146.495 92.5809C145.535 92.6874 145.002 93.4859 144.309 94.0182C144.256 94.2844 144.042 94.3909 143.936 94.7103C143.936 94.9232 143.669 94.657 143.722 94.9232C143.296 95.7217 143.136 96.5735 142.603 97.3187C142.496 97.5849 142.39 97.7446 142.443 98.0108C142.23 98.1172 141.643 99.0754 141.91 99.4481C141.537 100.247 141.803 99.7142 141.537 100.566C141.323 101.524 141.27 102.376 141.003 103.281C140.843 103.76 140.95 104.026 140.683 104.559C140.097 104.559 139.457 104.718 138.871 104.665V104.505L138.764 104.718C138.711 104.452 138.711 104.079 138.924 104.079C138.924 103.973 138.924 103.387 139.084 102.961C139.031 103.015 139.084 102.802 139.084 102.802C139.191 102.482 139.244 101.684 139.244 101.684C139.137 101.418 139.67 98.5431 139.777 98.4366C139.777 98.4366 140.097 96.9993 140.15 97.1058C140.417 96.6799 140.417 95.9879 140.737 95.7217C140.683 96.3605 140.524 97.3187 140.897 97.6914C141.27 97.3187 141.696 96.9993 141.643 96.2541C141.696 95.9879 142.016 96.0411 141.75 95.775C141.75 95.775 141.803 95.6685 141.856 95.7217L141.75 95.4555C141.856 95.2426 141.696 94.7635 141.803 94.5506L141.057 93.3262C140.417 93.1133 140.257 93.965 139.83 94.2844C139.777 94.5506 139.564 94.8168 139.457 95.0829L139.351 95.0297C139.457 95.3491 139.191 95.7217 139.191 96.0411C139.137 96.4138 138.817 96.7864 138.924 97.2123L138.817 97.2655C138.871 97.7446 138.444 99.0222 138.391 99.2351C138.444 99.6078 138.178 99.9272 138.391 100.46C138.284 101.897 137.911 103.334 137.698 104.665C136.791 104.984 135.618 104.612 134.659 105.144C134.446 105.357 134.232 105.623 134.339 105.943C134.925 106.741 135.992 106.209 136.845 106.262C137.005 106.528 137.218 106.102 137.325 106.422L137.165 106.581C137.378 106.954 136.951 107.646 136.898 108.072C136.845 109.296 136.525 110.361 136.258 111.532C136.152 112.49 135.992 113.289 135.512 113.182C135.299 113.129 134.925 113.129 134.872 113.395C134.765 113.928 134.925 114.513 134.925 114.992C134.925 115.099 135.139 115.258 135.032 115.312C134.979 115.525 135.139 115.738 135.245 115.844C135.565 115.951 135.832 115.738 135.992 115.525C136.685 113.874 137.431 111.692 137.378 111.106C137.751 110.84 137.378 110.414 137.644 110.042C137.644 110.095 137.858 109.616 137.698 109.509L137.858 109.403C137.804 109.243 138.178 108.977 137.858 108.87C137.964 108.658 137.858 108.285 138.071 108.125V108.178C138.071 108.019 138.284 107.806 138.071 107.699C138.391 107.327 138.338 106.741 138.551 106.262C139.244 106.262 139.83 106.102 140.417 106.156C139.511 110.521 140.47 110.84 138.604 114.939C138.338 114.779 138.391 114.62 138.231 114.407C138.231 114.407 138.124 114.247 138.071 114.141C138.071 114.141 137.485 112.916 137.485 113.981C137.485 114.673 137.485 115.471 138.071 115.897L138.018 115.951C138.178 116.27 138.817 116.589 138.817 116.589C139.084 116.749 139.191 116.27 139.511 116.27C139.83 114.886 140.63 113.555 140.79 112.064C141.003 110.893 140.737 110.68 140.95 110.042C141.163 109.669 141.163 108.711 141.057 108.551C141.27 108.072 141.217 107.486 141.163 107.007H141.377C141.377 106.901 141.43 106.794 141.483 106.688C141.11 106.209 141.75 106.102 141.963 105.783C142.23 105.943 142.603 105.676 142.976 105.676C142.816 106.156 143.029 106.688 142.869 107.114C143.136 108.019 143.669 108.977 144.735 109.137C146.015 109.35 147.401 108.87 148.574 108.445C148.894 108.285 149.214 108.072 149.64 108.019C149.587 108.498 150.12 108.817 150.28 109.19C151.986 109.935 153.852 108.764 155.452 108.125C155.665 108.019 155.612 107.54 155.878 107.753C155.878 107.273 156.465 107.593 156.465 107.114C156.092 106.954 156.785 106.209 156.092 106.315Z" fill="#808080"/>
<path d="M132.206 107.593C131.886 108.019 131.246 108.125 130.873 107.966C130.82 107.806 130.446 107.966 130.446 107.593C129.807 107.54 130.073 106.635 130.073 106.102C130.073 105.996 130.127 105.943 130.18 105.89L130.233 105.943C130.553 104.985 130.873 103.6 131.886 103.228C132.366 103.121 132.366 103.707 132.579 103.92C133.006 105.197 133.059 106.635 132.206 107.593ZM133.592 103.92C133.166 103.015 133.006 101.95 131.993 101.524C131.726 101.471 131.513 101.791 131.193 101.684C129.86 102.483 129.86 104.239 128.58 105.144C127.834 106.422 127.354 107.433 125.915 108.232C125.168 108.604 124.315 108.604 123.515 108.498C122.716 108.551 122.023 108.072 121.383 107.593C121.01 107.007 120.956 105.89 121.276 105.197C121.223 104.825 121.543 104.346 121.596 104.026C121.649 103.92 121.756 103.707 121.916 103.707L121.863 103.547C122.076 103.388 122.183 103.015 122.396 102.855C122.502 102.376 123.036 102.376 123.089 102.003C123.462 101.95 123.515 101.737 123.942 101.631C124.209 102.057 123.622 102.642 123.569 103.068C123.729 103.281 123.622 103.6 123.569 103.813C123.835 104.612 123.355 105.89 124.422 106.262C124.848 106.049 124.902 105.517 125.115 105.038C125.488 104.931 125.328 104.505 125.541 104.239C125.861 102.696 125.595 100.992 124.209 99.9274C122.822 100.353 121.596 101.418 120.903 102.749H120.796L120.903 102.855C120.636 103.494 120.05 104.133 120.21 104.718C120.263 104.985 119.943 105.304 120.157 105.517C119.837 105.57 120.103 106.049 120.05 106.422C120.263 107.114 120.476 108.179 121.116 108.711C122.129 109.829 123.622 110.042 125.008 109.989V109.935C125.915 109.882 126.714 109.456 127.301 108.871C127.354 108.924 127.354 108.977 127.407 108.977V108.817C127.941 108.498 128.207 107.966 128.74 107.54L129.433 108.498C129.967 108.871 130.127 109.03 130.766 109.403C131.513 109.722 132.366 109.35 132.899 108.924C134.179 107.54 134.019 105.517 133.592 103.92Z" fill="#808080"/>
<path d="M223.053 106.422C222.413 106.848 221.72 107.486 220.92 107.593C221.027 107.806 220.707 107.806 220.653 107.912C220.387 107.699 220.28 108.232 219.854 108.072C219.694 108.179 219.321 107.912 219.107 108.019C218.841 107.966 218.734 107.646 218.681 107.433C218.574 106.422 219.161 105.677 219.854 104.984C220.227 104.612 220.707 104.505 221.187 104.292L221.133 104.239C221.24 104.186 221.187 104.452 221.347 104.239L221.666 104.133V104.186L221.986 104.08V104.133C222.2 103.973 222.573 104.026 222.946 104.08C223.159 104.133 223.213 104.399 223.479 104.452C223.639 105.197 223.639 105.783 223.053 106.422ZM224.705 105.41C224.759 104.878 224.812 104.026 224.545 103.6L224.599 103.547C224.492 103.334 224.066 102.908 223.692 102.642C223.532 102.536 223.213 102.642 223.053 102.429C222.626 102.429 222.04 102.429 221.613 102.536C219.694 102.802 218.414 104.665 217.828 106.315C217.668 106.688 217.774 107.274 217.508 107.646C217.828 107.806 217.561 108.179 217.668 108.498C217.934 108.977 218.467 109.403 218.947 109.616C219.161 109.456 219.427 109.776 219.587 109.722C221.773 109.456 223.959 107.753 224.759 105.57L224.705 105.41Z" fill="#808080"/>
<path d="M171.448 105.783C171.448 106.209 171.289 106.795 170.862 107.061C170.489 107.327 169.849 107.274 169.422 107.114C168.943 106.795 168.516 106.103 168.729 105.464C168.943 104.772 169.849 104.399 170.542 104.293C170.915 104.346 171.395 104.346 171.715 104.718C171.875 105.091 171.502 105.411 171.448 105.783ZM173.155 105.623C173.048 104.506 172.835 103.547 171.822 102.802C170.969 102.27 170.062 102.855 169.103 103.068L168.943 103.228C168.409 103.388 168.143 103.973 167.77 104.452C167.397 104.399 167.556 104.878 167.29 104.931L167.023 105.89C167.023 106.369 166.33 106.475 165.904 106.688C164.944 106.369 165.477 105.144 165.264 104.452C165.264 104.186 165.051 104.08 165.051 103.814H164.517C164.198 103.92 164.411 104.186 164.198 104.346C163.931 105.411 163.185 106.635 162.225 107.274C162.065 107.114 162.012 106.848 162.012 106.635H162.118C161.692 105.677 162.065 104.772 161.798 103.654C162.065 103.388 161.852 102.962 161.798 102.589C161.745 102.376 161.372 102.057 161.159 102.057C160.625 102.376 160.785 103.015 160.785 103.494C160.625 103.814 160.732 104.186 160.732 104.506C160.199 104.878 161.105 105.198 160.679 105.677C160.839 105.89 160.785 106.369 160.785 106.741C160.732 107.008 160.945 107.38 160.839 107.593C161.265 107.646 160.892 108.338 161.265 108.498C161.105 108.711 161.478 108.711 161.425 108.871C161.692 109.19 162.118 108.871 162.438 108.924C162.491 108.658 162.918 108.551 162.918 108.445C162.918 108.285 162.971 108.179 163.131 108.179L163.931 107.114C164.624 106.635 164.411 107.753 164.891 108.019C165.637 108.445 166.543 108.179 167.237 107.7C167.29 107.753 167.29 107.859 167.29 107.912C167.716 107.966 167.93 108.658 168.409 108.711C168.676 108.817 169.103 108.924 169.209 109.03L171.075 108.977C171.182 109.563 171.182 109.935 171.182 110.468C171.342 110.574 171.182 110.681 171.182 110.787C171.395 111.373 170.969 111.319 171.182 111.958C170.915 112.597 170.809 113.821 169.689 114.62C168.623 115.365 167.396 115.152 166.277 114.939C165.37 114.62 164.091 114.833 163.451 113.928L163.664 113.821C163.131 113.502 162.438 113.875 161.905 113.928C161.425 114.301 161.638 114.62 161.692 115.046C161.798 115.312 162.065 115.472 162.332 115.685C163.718 116.004 165.211 116.696 166.757 116.59C167.343 116.856 168.569 116.643 169.316 116.43C169.689 116.323 170.009 115.844 170.435 115.738C170.595 115.365 171.022 115.152 171.129 114.726C171.715 114.673 171.448 113.928 171.928 113.715C172.142 112.863 172.195 112.011 172.355 111.799C172.408 110.681 172.142 109.297 172.408 108.125C172.142 107.859 172.781 107.859 172.621 107.593C173.208 107.061 173.101 106.262 173.155 105.623Z" fill="#808080"/>
<path d="M241.933 107.327C240.973 107.753 239.96 107.859 239 107.433C238.734 107.593 238.787 107.167 238.574 107.22C238.201 106.635 238.681 105.836 239.054 105.304L239.853 104.825C240.493 104.878 241.506 104.612 241.773 105.304C241.666 105.517 241.826 105.943 241.72 106.262C241.826 106.635 242.093 106.954 241.933 107.327ZM235.215 100.353C235.375 99.9806 235.375 99.5015 235.695 99.2885C235.695 99.1821 235.588 99.2885 235.588 99.1821C236.015 98.1706 236.548 97.0527 237.401 96.3607C237.561 96.8398 237.401 97.3721 237.348 97.8512L237.134 97.9577C237.561 98.5433 236.921 99.3418 236.868 99.9806C236.441 100.992 235.802 101.844 235.002 102.429H234.842C234.842 101.897 235.108 101.152 235.215 100.353ZM246.251 93.7523L245.985 93.2199C245.558 92.6876 245.398 93.5393 245.132 93.5925C244.865 94.6572 244.545 94.6572 244.279 95.8284C244.332 95.9881 243.905 96.0413 244.119 96.201C243.852 96.893 243.692 97.7448 243.372 98.3836L243.479 98.4368C243.159 99.395 242.679 100.353 242.573 101.365C242.359 101.95 242.253 102.642 242.039 103.281C241.186 103.015 239.853 103.015 239.054 103.547C238.627 104.133 237.934 104.772 237.668 105.57L237.721 105.677C237.508 105.89 237.614 106.209 237.561 106.422L237.401 106.262C236.708 106.528 236.175 107.54 235.375 107.487C235.268 107.327 234.842 107.274 235.108 107.007L234.842 106.901C234.842 106.848 234.948 106.794 234.948 106.741C234.629 106.475 234.789 106.156 234.629 105.836C234.522 105.677 234.735 105.623 234.842 105.623C234.789 105.623 234.575 105.623 234.629 105.517C234.629 105.41 234.682 105.517 234.735 105.517C234.469 105.357 234.735 105.091 234.629 104.772C234.682 104.186 235.482 104.026 235.642 103.494C236.388 103.121 236.761 102.27 237.241 101.684C237.081 101.365 237.668 101.045 237.614 100.726L237.721 100.566C238.521 98.703 238.681 96.7333 238.307 94.8701C238.094 94.5507 237.721 93.9119 237.241 94.391V94.4975C234.789 96.8398 233.829 100.513 233.402 103.547C233.242 103.547 233.189 103.76 233.082 103.6C232.922 103.547 232.656 103.547 232.496 103.707C232.389 104.08 232.069 104.505 232.283 104.985C232.709 105.038 232.869 105.251 233.296 105.304C233.189 106.049 233.669 106.688 233.669 107.38C233.776 107.699 234.149 108.179 234.095 108.551C234.255 108.711 234.682 108.924 234.788 109.137C235.002 109.19 235.215 109.403 235.375 109.137C235.855 108.924 236.068 108.391 236.655 108.179C236.921 108.285 237.348 108.179 237.614 108.498C238.041 108.604 238.254 109.03 238.734 109.03C239.16 109.296 239.694 109.403 240.12 109.296C240.973 109.35 241.826 109.03 242.679 108.604C242.786 108.817 242.946 109.19 243.212 109.19C243.266 109.509 243.586 109.509 243.799 109.776C244.332 109.829 245.078 109.882 245.665 109.509C245.612 109.509 245.505 109.509 245.505 109.456L245.612 109.403C245.558 109.296 245.398 109.456 245.452 109.296C245.505 109.243 245.612 109.03 245.772 109.137C245.825 108.871 246.465 108.817 246.305 108.445C246.145 108.391 246.198 108.232 246.305 108.125C245.612 108.125 244.972 108.498 244.332 108.285C244.225 107.966 243.746 107.646 243.852 107.114C243.746 107.007 244.065 106.954 243.852 106.848C244.065 105.996 244.172 104.931 243.639 104.239C243.372 104.346 243.639 103.973 243.372 104.026C243.532 102.642 243.799 101.098 244.279 99.6612C244.385 99.1821 244.759 98.6497 244.705 98.2239C245.078 96.9463 244.865 96.9463 245.505 95.8816L245.452 95.7751C245.825 95.4025 245.718 94.8702 245.985 94.5508C246.198 94.3911 246.038 94.0717 246.251 93.7523Z" fill="#808080"/>
<path d="M196.878 105.623C197.305 105.251 197.945 104.878 198.531 104.878L198.584 105.091C198.265 105.836 197.518 105.836 196.932 106.049C196.825 105.89 196.825 105.783 196.878 105.623ZM201.25 107.54C199.757 107.593 198.371 108.392 196.772 108.338C196.612 108.338 196.452 108.232 196.399 108.232C196.079 108.072 195.599 107.912 195.705 107.487C195.652 107.54 195.652 107.593 195.599 107.593C195.652 107.487 195.545 107.22 195.759 107.167C196.132 107.327 196.399 107.593 196.878 107.593C197.945 107.593 198.638 106.635 199.384 105.943C199.704 105.41 199.757 104.612 199.544 104.026L199.224 103.654C197.358 103.281 195.705 105.091 194.746 106.528C194.266 107.327 194.319 108.498 194.906 109.296C195.759 110.095 197.465 109.829 198.691 109.563L198.851 109.35C199.704 109.243 200.557 108.924 201.197 108.285C201.357 107.966 201.197 107.859 201.25 107.54Z" fill="#808080"/>
</svg>
